<svg xmlns="http://www.w3.org/2000/svg" viewBox="0 0 300 210" fill="none">
  <defs><radialGradient id="h"><stop stop-color="#28D45C" stop-opacity=".23"/><stop offset="1" stop-color="#28D45C" stop-opacity="0"/></radialGradient></defs>
  <rect width="300" height="210" fill="url(#h)"/>
  <g stroke="#28D45C" stroke-opacity=".28"><path d="m18 44 55 28 38-45 39 56 46-59 38 52 48-31M10 164l57-27 43 42 40-50 47 48 38-42 55 31"/><path d="M73 72 67 137M111 27l-1 152M150 83v46M196 24l1 153M234 76l1 59"/></g>
  <g fill="#FFD400"><circle cx="18" cy="44" r="3"/><circle cx="111" cy="27" r="3"/><circle cx="196" cy="24" r="3"/><circle cx="282" cy="45" r="3"/><circle cx="10" cy="164" r="3"/><circle cx="110" cy="179" r="3"/><circle cx="197" cy="177" r="3"/><circle cx="290" cy="166" r="3"/></g>
  <g stroke="#28D45C"><circle cx="150" cy="105" r="68" stroke-opacity=".14"/><circle cx="150" cy="105" r="51" stroke-opacity=".32" stroke-width="2"/><circle cx="150" cy="105" r="37" stroke-opacity=".72" stroke-width="2"/></g>
  <circle cx="150" cy="105" r="29" fill="#07140B" stroke="#28D45C" stroke-width="2"/>
  <path d="m135 105 10 11 23-26" stroke="#F7FFF9" stroke-width="6" stroke-linecap="round" stroke-linejoin="round"/>
  <g stroke="#FFD400"><path d="M150 28v10M150 172v10M73 105h10M217 105h10M96 51l7 7M197 152l7 7M204 51l-7 7M103 152l-7 7"/></g>
</svg>
