<svg xmlns="http://www.w3.org/2000/svg" viewBox="0 0 360 180" fill="none">
  <rect x="1" y="1" width="358" height="178" rx="18" fill="#090B0E" stroke="#fff" stroke-opacity=".1"/>
  <path d="M24 28h312v124H24zM180 28v124M24 90h312" stroke="#fff" stroke-opacity=".08"/>
  <path d="M48 125c45-49 75-61 111-42 22 12 35 10 52-9" stroke="#FFD400" stroke-width="3" stroke-linecap="round" stroke-dasharray="7 8"/>
  <path d="M211 74c24-22 47-33 83-29" stroke="#fff" stroke-opacity=".32" stroke-width="2"/>
  <path d="m286 36 12 9-13 8" stroke="#FFD400" stroke-width="2.5" stroke-linecap="round" stroke-linejoin="round"/>
  <circle cx="48" cy="125" r="6" fill="#FFD400"/><circle cx="159" cy="83" r="9" fill="#090B0E" stroke="#FFD400" stroke-width="2"/>
  <circle cx="211" cy="74" r="15" stroke="#FFD400" stroke-opacity=".28"/><circle cx="294" cy="45" r="5" fill="#FFD400"/>
  <path d="M159 83 126 38" stroke="#fff" stroke-opacity=".18"/><circle cx="126" cy="38" r="4" fill="#fff" fill-opacity=".45"/>
</svg>
