<svg xmlns="http://www.w3.org/2000/svg" viewBox="0 0 360 190" fill="none">
  <defs><radialGradient id="r"><stop stop-color="#FFD400" stop-opacity=".15"/><stop offset="1" stop-color="#FFD400" stop-opacity="0"/></radialGradient></defs>
  <rect x="1" y="1" width="358" height="188" rx="18" fill="#090B0E" stroke="#fff" stroke-opacity=".11"/>
  <path d="M32 151h296M59 151 96 36M180 151V36M301 151 264 36" stroke="#fff" stroke-opacity=".1"/>
  <path d="M70 110h220" stroke="#FFD400" stroke-opacity=".26" stroke-width="2"/>
  <g><circle cx="82" cy="110" r="29" fill="url(#r)" stroke="#FFD400" stroke-opacity=".4"/><circle cx="180" cy="110" r="34" fill="url(#r)" stroke="#FFD400" stroke-opacity=".55"/><circle cx="278" cy="110" r="29" fill="url(#r)" stroke="#FFD400" stroke-opacity=".4"/></g>
  <g fill="#050607" stroke="#FFD400" stroke-width="2"><circle cx="82" cy="110" r="12"/><circle cx="180" cy="110" r="12"/><circle cx="278" cy="110" r="12"/></g>
  <g fill="#FFD400"><circle cx="82" cy="110" r="4"/><circle cx="180" cy="110" r="4"/><circle cx="278" cy="110" r="4"/><circle cx="82" cy="54" r="3"/><circle cx="180" cy="44" r="3"/><circle cx="278" cy="54" r="3"/></g>
  <path d="m82 54 98-10 98 10" stroke="#FFD400" stroke-opacity=".35" stroke-dasharray="4 7"/>
  <path d="M68 166h224" stroke="#FFD400" stroke-opacity=".14" stroke-width="7" stroke-linecap="round"/>
</svg>
