<svg xmlns="http://www.w3.org/2000/svg" viewBox="0 0 390 650" fill="none">
  <defs>
    <radialGradient id="halo" cx="0" cy="0" r="1" gradientTransform="translate(286 182) rotate(126) scale(210 230)" gradientUnits="userSpaceOnUse">
      <stop stop-color="#FFD400" stop-opacity=".2"/><stop offset="1" stop-color="#FFD400" stop-opacity="0"/>
    </radialGradient>
    <filter id="glow" x="-100%" y="-100%" width="300%" height="300%"><feGaussianBlur stdDeviation="3"/></filter>
    <pattern id="micro" width="24" height="24" patternUnits="userSpaceOnUse"><circle cx="1" cy="1" r=".8" fill="#FFD400" fill-opacity=".12"/></pattern>
  </defs>
  <rect width="390" height="650" fill="url(#halo)"/>
  <rect width="390" height="650" fill="url(#micro)"/>
  <g stroke="#FFD400" stroke-opacity=".17" stroke-width=".8">
    <path d="M-42 94 38 47l54 31 67-43 61 59 72-47 143 64"/>
    <path d="M-20 176 59 117l74 34 68-27 75 71 64-32 84 47"/>
    <path d="M-42 284 33 223l83 44 45-68 80 50 63-31 118 80"/>
    <path d="M-22 408 59 335l75 55 61-80 77 56 78-41 73 71"/>
    <path d="M-40 542 43 475l72 41 67-52 82 54 58-24 112 78"/>
    <path d="M38 47 59 117 33 223M92 78l41 73-17 116M159 35l42 89-40 75M220 94l56 101-35 54M292 47l48 116-64 32M59 335l-16 140M134 390l-19 126M195 310l-13 154M272 366l-8 152M350 325l-28 169"/>
  </g>
  <g fill="#FFD400">
    <circle cx="38" cy="47" r="2"/><circle cx="92" cy="78" r="3"/><circle cx="159" cy="35" r="2"/><circle cx="220" cy="94" r="2.5"/><circle cx="292" cy="47" r="2"/>
    <circle cx="59" cy="117" r="2.5"/><circle cx="133" cy="151" r="2"/><circle cx="201" cy="124" r="3"/><circle cx="276" cy="195" r="2"/><circle cx="340" cy="163" r="2.5"/>
    <circle cx="33" cy="223" r="2"/><circle cx="116" cy="267" r="3"/><circle cx="161" cy="199" r="2"/><circle cx="241" cy="249" r="2.5"/><circle cx="304" cy="218" r="2"/>
    <circle cx="59" cy="335" r="2.5"/><circle cx="134" cy="390" r="2"/><circle cx="195" cy="310" r="3"/><circle cx="272" cy="366" r="2"/><circle cx="350" cy="325" r="2.5"/>
  </g>
  <g fill="#FFD400" filter="url(#glow)" opacity=".7"><circle cx="201" cy="124" r="6"/><circle cx="116" cy="267" r="5"/><circle cx="195" cy="310" r="6"/></g>
</svg>
